<svg xmlns="http://www.w3.org/2000/svg" width="512" height="512" viewBox="0 0 512 512" style="display:block">
  <defs>
    <linearGradient id="tile" x1="0" y1="0" x2="0" y2="1">
      <stop offset="0" stop-color="#5fb2f2"/>
      <stop offset="1" stop-color="#3390ec"/>
    </linearGradient>
    <mask id="mark">
      <rect width="32" height="32" fill="#fff"/>
      <path d="M18.9 11.5A2.9 2.9 0 1 0 16 14.4A2.9 2.9 0 1 1 13.1 17.3" fill="none" stroke="#000" stroke-width="2.6" stroke-linecap="round" stroke-linejoin="round"/>
    </mask>
  </defs>
  <rect width="512" height="512" rx="112" fill="url(#tile)"/>
  <g transform="translate(81.92 81.92) scale(10.879999999999999)">
    <path d="M16 3.6C23.2 3.6 28.4 8.4 28.4 14.4 28.4 20.4 23.2 25.2 16 25.2 13.4 25.2 11 24.6 9 23.6L3.7 28.6C3 29.2 2.2 28.6 2.4 27.7L4 21.2C3.7 19 3.6 16.8 3.6 14.4 3.6 8.4 8.8 3.6 16 3.6Z" fill="#fff" mask="url(#mark)"/>
  </g>
</svg>